<svg width="22" height="23" fill="none" xmlns="http://www.w3.org/2000/svg">
  <g opacity=".4" clip-path="url(#a)" fill="#F1F1F1">
    <path d="M7.9382 4.1438a.6445.6445 0 0 0 .6445-.6445V2.2014a.6446.6446 0 0 0-1.289 0v1.2979c0 .356.2885.6445.6445.6445ZM2.091 6.5046l-1.1241-.649A.6445.6445 0 0 0 .3224 6.972l1.124.649a.6445.6445 0 0 0 .6445-1.1163ZM1.4464 13.6314l-1.124.6489c-.569.3284-.3354 1.2028.3228 1.2028.292 0 .3659-.1411 1.4457-.7354a.6445.6445 0 0 0-.6445-1.1163ZM14.4299 7.621l1.124-.649a.6445.6445 0 0 0 .2359-.8805.6444.6444 0 0 0-.8804-.2359l-1.124.649a.6445.6445 0 0 0-.2359.8804.6443.6443 0 0 0 .8804.236ZM6.6354 12.2589c.4784-2.6217 2.5899-4.63 5.2257-4.9758-.9464-1.1097-2.3538-1.8147-3.923-1.8147-2.8431 0-5.1562 2.314-5.1562 5.1581 0 1.3584.5279 2.5956 1.389 3.5177.596-.8751 1.4661-1.5429 2.4646-1.8853Z"/>
    <path d="M17.1405 11.5418c-.7299-1.8042-2.4988-3.0215-4.4818-3.0215-2.659 0-4.8053 2.1434-4.8334 4.7865-1.8307.2009-3.2233 1.7712-3.2233 3.6135 0 2.0046 1.6303 3.6355 3.6342 3.6355 10.1411-.0106 9.5862.0259 9.7628-.0289C20.2518 20.2727 22 18.3614 22 16.0425c0-2.6481-2.2619-4.7042-4.8595-4.5007Z"/>
  </g>
  <defs>
    <clipPath id="a">
      <path fill="#fff" d="M0 .0536h22v22.0079H0z"/>
    </clipPath>
  </defs>
</svg>
