<svg width="44" height="66" fill="none" xmlns="http://www.w3.org/2000/svg">
  <g clip-path="url(#a)">
    <path style="mix-blend-mode:screen" opacity=".7" d="M43.1511 40.9371a31.5578 31.5578 0 0 0-2.8683-9.4047c-2.5756-5.527-6.3804-10.7988-9.9024-16.3061A75.7358 75.7358 0 0 1 24.595 4.8398a43.2296 43.2296 0 0 1-1.0829-2.6997c.3122.9327.6634 1.8456 1.0439 2.7586a76.729 76.729 0 0 0 5.5903 10.4944c3.4146 5.5565 7.1219 10.9166 9.5902 16.4927a31.7606 31.7606 0 0 1 2.6927 9.4538c.1094 1.0105.155 2.027.1366 3.0433-.0967 5.8212-2.4575 11.3723-6.5756 15.4618C32.1019 63.7106 26.88 65.9158 21.4146 66h.478a21.3583 21.3583 0 0 0 10.07-2.5965c3.0945-1.6828 5.7306-4.105 7.6763-7.0536 2.4338-3.6632 3.7278-7.9729 3.7171-12.3793a23.8726 23.8726 0 0 0-.2049-3.0335Z" fill="url(#b)"/>
    <path style="mix-blend-mode:screen" opacity=".7" d="M.6341 40.9371a31.5583 31.5583 0 0 1 2.8683-9.4047c2.5756-5.527 6.3805-10.7988 9.9025-16.3061a75.7246 75.7246 0 0 0 5.7853-10.3865 43.1692 43.1692 0 0 0 1.083-2.6997c-.3317.9327-.6634 1.8064-1.0439 2.788a77.8039 77.8039 0 0 1-5.5805 10.4945c-3.4244 5.5564-7.1317 10.9166-9.6 16.4926a31.763 31.763 0 0 0-2.644 9.4244 24.1931 24.1931 0 0 0-.1365 3.0433c.0967 5.8212 2.4574 11.3723 6.5756 15.4618 3.8883 3.8659 9.1102 6.0711 14.5756 6.1553h-.5268a21.3583 21.3583 0 0 1-10.07-2.5965c-3.0945-1.6828-5.7306-4.105-7.6764-7.0536C1.7126 52.6867.4186 48.377.4293 43.9706a23.883 23.883 0 0 1 .2048-3.0335Z" fill="url(#c)"/>
    <path style="mix-blend-mode:screen" d="M36.7122 24.1991c1.3073 2.3757 2.1463 4.4275 1.8634 4.5747-.2829.1473-1.561-1.6394-2.8585-4.0152-1.2976-2.3757-2.1464-4.4274-1.8732-4.5747.2732-.1473 1.561 1.6394 2.8683 4.0152Z" fill="url(#d)"/>
    <path style="mix-blend-mode:screen" d="M1.5707 44.3338c.1268 2.0714-.1073 3.7795-.5366 3.809-.4292.0295-.8683-1.6394-.9756-3.7108-.1073-2.0714.117-3.7796.5366-3.8091.4195-.0294.8097 1.61.9756 3.7109Z" fill="url(#e)"/>
    <path style="mix-blend-mode:screen" opacity=".4" d="M22.2342.8345c2.1073 9.9545 3.0829 13.7438 13.1805 29.0879 9.3463 14.1954 5.0146 30.5015-11.9903 33.2994 10.5659-3.4458 13.6586-15.3931 8.0098-30.3641-2.4293-6.4106-9.3366-20.0072-9.2-32.0232Z" fill="url(#f)"/>
    <path style="mix-blend-mode:screen" opacity=".4" d="M21.6877.0197C19.5804 9.974 18.6048 13.7635 8.5073 29.1076-.8391 43.3128 3.5219 59.6189 20.5072 62.407 9.9316 58.971 6.8487 47.0139 12.4877 32.0429c2.4293-6.4302 9.3366-20.0268 9.2-32.0232Z" fill="url(#g)"/>
    <path style="mix-blend-mode:screen" opacity=".38" d="M22.2145 62.5836a16.5011 16.5011 0 0 1-2.9268-.7264c-8.361-2.9353-11.6-9.0121-11.0536-17.6609.1365-2.3855-4.2244-4.7122-4.5171-.6872-.3717 3.917.5784 7.8458 2.697 11.1531 2.1186 3.3073 5.2823 5.8003 8.981 7.0772a14.9365 14.9365 0 0 0 6.8195.8442Z" fill="url(#h)"/>
    <path opacity=".4" d="M38.3317 54.1901c-2.683 4.5748-6.8878 7.0781-9.3951 5.5859-2.5074-1.4922-2.3708-6.4007.3024-10.9754 2.6732-4.5748 6.8878-7.0879 9.4049-5.5957 2.517 1.4921 2.3707 6.4007-.3122 10.9852Z" fill="#fff"/>
    <path opacity=".4" d="M41.4048 43.3227c0 3.8385-1.7268 6.9505-3.8341 6.9406-2.1073-.0098-3.8049-3.1218-3.7951-6.9701.0097-3.8482 1.7756-6.9504 3.8439-6.9504s3.7853 3.1316 3.7853 6.9799Z" fill="#fff"/>
    <path style="mix-blend-mode:screen" d="M21.3464 35.145c1.6046-1.9687 3.7535-3.4142 6.1748-4.1536a12.7137 12.7137 0 0 1 7.4276-.0005c2.4214.7391 4.5705 2.1844 6.1754 4.1529 1.6049 1.9685 2.5935 4.3718 2.8407 6.9058a12.9388 12.9388 0 0 1-1.4521 7.3297c-1.1939 2.2449-3.0227 4.0831-5.2551 5.2819a12.722 12.722 0 0 1-7.2858 1.4527c-2.518-.2516-4.9052-1.2491-6.8597-2.8662a12.8241 12.8241 0 0 1-3.1688-3.8781 12.9 12.9 0 0 1-1.4488-4.8044 12.9174 12.9174 0 0 1 .4928-4.9961 12.8674 12.8674 0 0 1 2.359-4.4241Z" fill="url(#i)"/>
  </g>
  <defs>
    <linearGradient id="b" x1="21.4048" y1="-7.9812" x2="35.7032" y2="71.6729" gradientUnits="userSpaceOnUse">
      <stop offset=".31" stop-color="#fff"/>
      <stop offset=".34" stop-color="#F8FDFF"/>
      <stop offset=".38" stop-color="#E5F7FD"/>
      <stop offset=".42" stop-color="#C5ECFB"/>
      <stop offset=".48" stop-color="#99DEF8"/>
      <stop offset=".53" stop-color="#61CDF5"/>
      <stop offset=".58" stop-color="#33BEF2"/>
      <stop offset=".66" stop-color="#10B3F0"/>
      <stop offset=".69" stop-color="#00AEEF"/>
      <stop offset=".71" stop-color="#03A1DC"/>
      <stop offset=".79" stop-color="#0E739A"/>
      <stop offset=".86" stop-color="#174F65"/>
      <stop offset=".92" stop-color="#1E3540"/>
      <stop offset=".97" stop-color="#222528"/>
      <stop offset="1" stop-color="#231F20"/>
    </linearGradient>
    <linearGradient id="c" x1="-5164.05" y1="439.58" x2="-7348.54" y2="4656.37" gradientUnits="userSpaceOnUse">
      <stop offset=".31" stop-color="#fff"/>
      <stop offset=".34" stop-color="#F8FDFF"/>
      <stop offset=".38" stop-color="#E5F7FD"/>
      <stop offset=".42" stop-color="#C5ECFB"/>
      <stop offset=".48" stop-color="#99DEF8"/>
      <stop offset=".53" stop-color="#61CDF5"/>
      <stop offset=".58" stop-color="#33BEF2"/>
      <stop offset=".66" stop-color="#10B3F0"/>
      <stop offset=".69" stop-color="#00AEEF"/>
      <stop offset=".71" stop-color="#03A1DC"/>
      <stop offset=".79" stop-color="#0E739A"/>
      <stop offset=".86" stop-color="#174F65"/>
      <stop offset=".92" stop-color="#1E3540"/>
      <stop offset=".97" stop-color="#222528"/>
      <stop offset="1" stop-color="#231F20"/>
    </linearGradient>
    <linearGradient id="f" x1="32.6049" y1="62.7309" x2="27.2908" y2=".4965" gradientUnits="userSpaceOnUse">
      <stop/>
      <stop offset="1" stop-color="#fff"/>
    </linearGradient>
    <linearGradient id="g" x1="682.146" y1="5000.36" x2="2646.71" y2="1987.68" gradientUnits="userSpaceOnUse">
      <stop/>
      <stop offset="1" stop-color="#fff"/>
    </linearGradient>
    <linearGradient id="h" x1="20.0097" y1="65.3619" x2="1.3" y2="41.5704" gradientUnits="userSpaceOnUse">
      <stop stop-color="#414042"/>
      <stop offset="1" stop-color="#fff"/>
    </linearGradient>
    <radialGradient id="d" cx="0" cy="0" r="1" gradientUnits="userSpaceOnUse" gradientTransform="rotate(-29.207 69.3077 -41.632) scale(.59652 4.91766)">
      <stop stop-color="#fff"/>
      <stop offset=".19" stop-color="#fff"/>
      <stop offset=".32" stop-color="#C8C8C8"/>
      <stop offset=".68" stop-color="#393939"/>
      <stop offset=".83"/>
    </radialGradient>
    <radialGradient id="e" cx="0" cy="0" r="1" gradientUnits="userSpaceOnUse" gradientTransform="matrix(1.2128 -.09388 2.24099 28.952 -293.921 -931.026)">
      <stop stop-color="#fff"/>
      <stop offset=".19" stop-color="#fff"/>
      <stop offset=".32" stop-color="#C8C8C8"/>
      <stop offset=".68" stop-color="#393939"/>
      <stop offset=".83"/>
    </radialGradient>
    <radialGradient id="i" cx="0" cy="0" r="1" gradientUnits="userSpaceOnUse" gradientTransform="rotate(-152.966 20.9973 18.0688) scale(12.8652 12.9125)">
      <stop offset=".13" stop-color="#fff"/>
      <stop offset=".37" stop-color="#A8A8A8"/>
      <stop offset=".63" stop-color="#4E4E4E"/>
      <stop offset=".82" stop-color="#161616"/>
      <stop offset=".91"/>
    </radialGradient>
    <clipPath id="a">
      <path fill="#fff" d="M0 0h44v66H0z"/>
    </clipPath>
  </defs>
</svg>
