<svg width="25" height="25" fill="none" xmlns="http://www.w3.org/2000/svg">
  <g clip-path="url(#a)" fill="#2194FF">
    <path d="M12.5 6.2384c-3.4527 0-6.2616 2.8094-6.2616 6.2622 0 3.4527 2.8089 6.2621 6.2616 6.2621 3.4522 0 6.2616-2.8089 6.2616-6.2621 0-3.4533-2.8094-6.2622-6.2616-6.2622ZM12.5 4.3977c-.6748 0-1.2218-.547-1.2218-1.2212V1.2218C11.2782.5469 11.8252 0 12.5 0s1.2218.547 1.2218 1.2218v1.9547c0 .6743-.5475 1.2212-1.2218 1.2212ZM12.5 20.6017c-.6748 0-1.2218.547-1.2218 1.2218v1.9542c0 .6754.547 1.2223 1.2218 1.2223s1.2218-.5469 1.2218-1.2223v-1.9542c0-.6748-.5475-1.2218-1.2218-1.2218ZM18.2285 6.771c-.4766-.4773-.4766-1.2506 0-1.7278l1.3823-1.3823c.4767-.4767 1.2506-.4767 1.7278 0 .4772.4772.4772 1.251 0 1.7277L19.9563 6.771c-.4767.4772-1.25.4772-1.7278 0ZM6.771 18.2296c-.4773-.4777-1.2506-.4777-1.7278 0l-1.3823 1.3818c-.4767.4766-.4772 1.2511 0 1.7277.4772.4767 1.251.4767 1.7277 0l1.3823-1.3828c.4772-.4767.4772-1.2506 0-1.7267ZM20.6017 12.5c0-.6748.547-1.2218 1.2218-1.2218h1.9547c.6749 0 1.2218.547 1.2218 1.2218s-.5469 1.2212-1.2218 1.2212h-1.9547c-.6748 0-1.2218-.5464-1.2218-1.2212ZM4.3977 12.5c0-.6748-.547-1.2218-1.2218-1.2218H1.2218C.5469 11.2782 0 11.8252 0 12.5s.547 1.2212 1.2218 1.2212h1.9547c.6743 0 1.2212-.5464 1.2212-1.2212ZM18.2285 18.2296c.4772-.4766 1.2511-.4766 1.7278 0l1.3823 1.3823c.4772.4761.4772 1.2506 0 1.7272-.4772.4767-1.2506.4767-1.7278 0l-1.3823-1.3823c-.4772-.4772-.4772-1.2505 0-1.7272ZM6.771 6.771c.4771-.4773.4771-1.2506 0-1.7278L5.3885 3.6614c-.4772-.4772-1.2505-.4772-1.7277 0-.4772.4767-.4772 1.2506 0 1.7272L5.0432 6.771c.4772.4778 1.2505.4778 1.7277 0Z"/>
  </g>
  <defs>
    <clipPath id="a">
      <path fill="#fff" d="M0 0h25v25H0z"/>
    </clipPath>
  </defs>
</svg>
