<svg width="91" height="43" fill="none" xmlns="http://www.w3.org/2000/svg">
  <g clip-path="url(#a)" fill-rule="evenodd" clip-rule="evenodd" fill="#0079C2">
    <path d="M28.106 28.1133h5.776v1.8549h-2.7471v13.0319H28.106V28.1133ZM37.3052 37.4108l.5191-7.4443h.1783l.5191 7.4443h-1.2165Zm-3.3518 5.5876h2.9647l.28-3.9571h1.4271l.2818 3.9536h2.963l-1.5787-14.885h-4.7592l-1.5787 14.8885ZM46.2063 37.7891v2.8052a.4527.4527 0 0 0 .0269.1862.4584.4584 0 0 0 .1006.16.467.467 0 0 0 .1574.107.4757.4757 0 0 0 .1878.036.4938.4938 0 0 0 .1878-.0385.4857.4857 0 0 0 .1581-.1067.4766.4766 0 0 0 .1039-.1584.472.472 0 0 0 .0337-.1856v-3.4644c0-.4646-.0857-.9765-1.2166-.9765h-1.2291v-1.6358h1.279c.8563 0 1.1667-.1946 1.1667-1.1098v-2.9577a.4717.4717 0 0 0-.0337-.1856.478.478 0 0 0-.1039-.1585.4888.4888 0 0 0-.1581-.1067.4956.4956 0 0 0-.1878-.0384.4644.4644 0 0 0-.3483.14.4483.4483 0 0 0-.1003.1615.4422.4422 0 0 0-.0241.1877v2.4282h-3.0325v-2.1039c0-1.0379.1249-2.6597 2.2476-2.6597h2.5081c2.1228 0 2.2583 1.6218 2.2583 2.6597v2.3792c0 1.6235-1.1541 2.0618-2.0603 2.025v.1472c2.0371-.0491 2.0603 1.4885 2.0603 2.0128v2.9997c0 1.052-.1355 2.6597-2.2583 2.6597H45.425c-2.1227 0-2.2476-1.6095-2.2476-2.6597v-2.5492h3.0289ZM52.1786 28.1133h7.014v14.8868h-3.0289V29.9682h-.9562v13.0319h-3.0289V28.1133ZM64.2088 36.2992v-6.3327h.3978c.3228 0 .5583.27.5583.7451v4.8442c0 .4751-.2355.7434-.5583.7434h-.3978Zm-3.0325 6.6991h3.0325v-5.0634h1.7374c2.1103 0 2.2476-1.6112 2.2476-2.6596v-4.5024c0-1.0379-.1373-2.6596-2.2476-2.6596h-4.7664l-.0035 14.885ZM74.1643 40.5946a.4706.4706 0 0 1-.0337.1856.4776.4776 0 0 1-.1039.1584.4873.4873 0 0 1-.1581.1067.4957.4957 0 0 1-.1878.0385.4742.4742 0 0 1-.1875-.036.4665.4665 0 0 1-.1571-.1071.452.452 0 0 1-.1263-.3461V30.4503a.4433.4433 0 0 1 .0239-.1872.4498.4498 0 0 1 .0999-.1612.4576.4576 0 0 1 .1582-.1069.4645.4645 0 0 1 .1889-.0338.4937.4937 0 0 1 .1878.0384.4873.4873 0 0 1 .1581.1067.477.477 0 0 1 .1039.1585.4698.4698 0 0 1 .0337.1855v10.1443Zm-3.9833-.256c0 1.052.1373 2.6597 2.2476 2.6597h2.5205c2.1103 0 2.2477-1.6095 2.2477-2.6597v-9.5657c0-1.0379-.1374-2.6596-2.2477-2.6596h-2.5223c-2.1102 0-2.2476 1.6217-2.2476 2.6596l.0018 9.5657ZM87.0524 28.1133H91v14.8868h-3.0289V33.664h-.1124l-1.5644 9.3361h-2.4206l-1.552-9.3361h-.1124v9.3361h-3.0289V28.1133h3.9351l1.9747 10.4686 1.9622-10.4686ZM24.1815 7.7598C23.254 3.7695 20.9296.5242 20.6139 0c-.5048.7434-2.36 3.6117-3.3019 6.7833a24.1957 24.1957 0 0 0-.8241 9.7866c.3568 3.0997 1.6857 6.2836 1.6857 6.2836.7136 1.6603 1.7678 3.4539 2.4581 4.3323 1.0043-1.2939 3.3304-5.1511 4.0618-10.1776.4032-2.8052.421-5.2597-.5048-9.2484h-.0072Zm-3.5676 18.4249c-.4549-.8416-1.1631-2.4406-1.2291-4.9302-.0178-2.3914.9597-4.4532 1.2487-4.881.2551.4278 1.0953 2.2214 1.197 4.6742.0469 1.7858-.3706 3.554-1.213 5.137h-.0036Zm3.3036-11.6521a21.4614 21.4614 0 0 1-.4566 4.0991 25.007 25.007 0 0 0-.5048-5.8208c-.3871-1.8181-1.4842-4.8687-2.3583-6.2713-.808 1.343-1.8034 3.9781-2.3189 6.2591-.5156 2.2809-.5352 5.0528-.5352 5.8821a28.6528 28.6528 0 0 1-.3888-5.698 24.9763 24.9763 0 0 1 .8437-5.1739c1.0275-3.2575 2.1905-5.3438 2.4099-5.6734a25.4095 25.4095 0 0 1 2.4421 5.5998 24.4777 24.4777 0 0 1 .8616 6.7973h.0053Z"/>
    <path d="M22.1818 28.1132h-7.0497v4.6478s.0108-.0122.0179-.0122a4.256 4.256 0 0 1 1.3798-.9368 4.318 4.318 0 0 1 1.641-.3396 4.3194 4.3194 0 0 1 1.647.3103 4.2592 4.2592 0 0 1 1.3968.912c.3995.3921.7155.8585.9296 1.3719a4.1181 4.1181 0 0 1 .3177 1.6183 4.12 4.12 0 0 1-.3436 1.6133 4.178 4.178 0 0 1-.9515 1.3572c0 .0123-.0142.0123-.0232.0246 0 0-.016.0123-.0232.0245-.9904.9686-2.2086 1.6822-3.5465 2.0777a8.643 8.643 0 0 1-4.1243.1901c-1.3697-.2708-2.6504-.8692-3.7288-1.7424-1.0784-.8732-1.921-1.9941-2.4536-3.2637a8.2243 8.2243 0 0 1-.5994-4.015c.139-1.3664.6185-2.6781 1.3961-3.819.7777-1.1408 1.8294-2.0757 3.0623-2.7218a8.6185 8.6185 0 0 1 4.0059-.9825V13.251c-2.5089-.0003-4.9785.6128-7.1863 1.784-2.208 1.1712-4.0847 2.8638-5.4614 4.9254-1.3767 2.0615-2.21 4.4272-2.425 6.884-.215 2.4569.195 4.9277 1.1934 7.19.9983 2.2623 2.5535 4.245 4.5254 5.7696 1.972 1.5245 4.2988 2.5431 6.7709 2.9639a15.3783 15.3783 0 0 0 7.3907-.5534c2.3788-.784 4.5218-2.1372 6.236-3.9377V28.1079l-3.994.0053Z"/>
  </g>
  <defs>
    <clipPath id="a">
      <path fill="#fff" d="M0 0h91v43H0z"/>
    </clipPath>
  </defs>
</svg>
