<svg width="20" height="21" fill="none" xmlns="http://www.w3.org/2000/svg">
  <g opacity=".4" clip-path="url(#a)">
    <path d="M19.5133 11.4491c-.2046-.0511-.4092 0-.5882.128-.6649.5628-1.4322 1.0233-2.2761 1.3303-.7928.307-1.6624.4605-2.583.4605a7.5189 7.5189 0 0 1-5.3195-2.2002A7.5245 7.5245 0 0 1 6.547 5.8463c0-.8698.1534-1.714.4091-2.4816.2814-.8187.6906-1.5606 1.2276-2.2002.2302-.2814.179-.6907-.1023-.921-.179-.1279-.3836-.179-.5882-.1279C5.3195.704 3.427 2.0088 2.0715 3.7485.7672 5.4625 0 7.586 0 9.8885c0 2.7887 1.1253 5.3214 2.9666 7.1634 1.8414 1.8421 4.3477 2.9677 7.1609 2.9677 2.3528 0 4.5267-.8186 6.2657-2.1746 1.7647-1.3815 3.0434-3.3514 3.5805-5.6028.1023-.3581-.1023-.7163-.4604-.7931Z" fill="#F1F1F1"/>
  </g>
  <defs>
    <clipPath id="a">
      <path fill="#fff" d="M0 .0543h20v20.007H0z"/>
    </clipPath>
  </defs>
</svg>
