<svg width="377" height="70" viewBox="0 0 377 70" fill="none" xmlns="http://www.w3.org/2000/svg">
<path opacity="0.31" d="M317 20.1618V8.34256C316.94 6.09421 316.201 3.96489 314.942 2.4071C313.683 0.8493 312.002 -0.0141797 310.257 0.00017618H6.48726C5.63636 -0.00113663 4.7936 0.213603 4.00708 0.632137C3.22056 1.05067 2.50568 1.66481 1.90329 2.43948C1.30089 3.21414 0.822758 4.13417 0.496192 5.14703C0.169626 6.15988 0.00101722 7.24571 0 8.34256V44C0 44 40.745 25.8366 127.482 19.5923C208.112 13.7876 317 20.1618 317 20.1618Z" fill="url(#paint0_linear_8109_11)"/>
<path opacity="0.15" d="M3 69.1896H369.29C370.302 69.1909 371.304 68.976 372.24 68.5571C373.175 68.1382 374.025 67.5236 374.741 66.7484C375.457 65.9731 376.025 65.0525 376.413 64.0392C376.8 63.0258 377 61.9396 377 60.8427V43.1803C377 43.1803 361.662 59.6346 278.434 63.0392C205.669 66.0345 3 69.1896 3 69.1896Z" fill="white"/>
<defs>
<linearGradient id="paint0_linear_8109_11" x1="158.5" y1="-9.43121" x2="158.5" y2="54.4105" gradientUnits="userSpaceOnUse">
<stop stop-color="#81C0FB"/>
<stop offset="1" stop-color="white"/>
</linearGradient>
</defs>
</svg>
