<svg width="107" height="114" fill="none" xmlns="http://www.w3.org/2000/svg">
  <g clip-path="url(#a)" fill="#F1F1F1">
    <path d="m82.1667 87.294-1.7677-1.2852c.9932-1.3274 1.9759-2.6736 2.8867-4.1033l1.8031 1.2157c-.8436 1.4167-1.9206 2.816-2.9221 4.1728Zm5.7157-8.3972-1.8952-1.1143c.8873-1.5156 1.653-2.938 2.3032-4.3449l1.972.8976a49.5306 49.5306 0 0 1-2.38 4.5616Zm4.2143-9.3861-2.095-.6301c.1598-.5112.2983-1.0601.4286-1.5796a24.1642 24.1642 0 0 0 .5293-3.1234l2.171.1908a26.904 26.904 0 0 1-.5638 3.4154c-.0525.5252-.2938 1.1567-.4701 1.7269Zm.9735-10.4618-2.1797.2355a20.7943 20.7943 0 0 0-1.027-4.6515l2.0788-.724a24.4182 24.4182 0 0 1 1.1809 5.2341l-.053-.0941Zm-5.2979-8.6172a14.0259 14.0259 0 0 0-3.2231-3.341l1.2921-1.7682a16.2028 16.2028 0 0 1 3.7131 3.8582l-1.7821 1.251Zm-7.358-5.4749a18.7034 18.7034 0 0 0-4.6468-.879l.1485-2.1656c1.768.0854 3.5153.411 5.194.9677l-.6957 2.0769Zm-9.487-.7323c-1.446.1696-3.0431.4241-4.8479.7956l-.493-2.201a46.4165 46.4165 0 0 1 5.0791-.8265l.2618 2.2319Zm-9.7281 1.9315-1.4851.365-3.4116.8298-.5307-2.1798 3.382-.8379 1.5041-.3757.5413 2.1986Zm-9.8887 2.2201c-1.6832.2783-3.3899.4706-5.099.6147l-.1522-2.1698c1.6312-.1498 3.2896-.3397 4.9056-.6049l.3456 2.16Zm-10.2187.7949c-1.7053.018-3.4153-.0604-5.0792-.1896l.1674-2.1762c1.6345.121 3.2855.1831 4.9236.1781l-.0118 2.1877Zm-10.1851-.7359c-1.6709-.274-3.3629-.5856-5.0195-.9668l.5-2.1155c1.5976.3648 3.2306.6601 4.8425.9177l-.323 2.1646Zm-9.9394-2.287c-1.6341-.5177-3.2515-1.0944-4.8123-1.703l.7947-2.0335c1.5313.6004 3.1276 1.1394 4.6543 1.6432l-.6367 2.0933ZM11.4044 42.41c-1.5193-.7558-3.0221-1.5705-4.4789-2.4359l1.113-1.8656a70.9128 70.9128 0 0 0 4.348 2.336l-.9821 1.9655Zm-8.77-5.2005c-.793-.5698-1.5861-1.1396-2.352-1.7494l1.3427-1.7224c.7554.591 1.5084 1.1338 2.272 1.6953l-1.2626 1.7765Z"/>
    <path d="m92.7256 85.9111-.4423-2.1551-10.5492 2.1953-1.3827-10.6723-2.1773.2838 1.6868 12.9795 12.8647-2.6312Z"/>
  </g>
  <defs>
    <clipPath id="a">
      <path fill="#fff" d="M0 34.8259 61.8721 0l44.1455 78.4295-61.8721 34.8258z"/>
    </clipPath>
  </defs>
</svg>
