<svg width="115" height="22" fill="none" xmlns="http://www.w3.org/2000/svg">
  <g clip-path="url(#a)">
    <path d="M21.0774 1.747H0V22h21.0774V1.747Z" fill="#ED1B34"/>
    <path fill-rule="evenodd" clip-rule="evenodd" d="M17.6737 3.7677a1.1992 1.1992 0 0 0-.6229.1923c-.1844.12-.3292.288-.4174.4845L13.984 8.6371a2.9951 2.9951 0 0 0-.3173 1.1136 1.567 1.567 0 0 0 .1352.6952l2.8679 6.5881H5.5225a.8057.8057 0 0 1-.51-.2304.7477.7477 0 0 1-.2217-.4981V4.9446c-.0833-1.552-2.4032-1.552-2.4535.0467l.0485 12.0494a2.238 2.238 0 0 0 .17.8989c.118.2858.2941.5462.518.7659a2.418 2.418 0 0 0 .7857.5139c.2948.1194.6114.1812.9313.1819h15.1994l-3.7019-9.1088a1.1465 1.1465 0 0 1-.0794-.536 1.1573 1.1573 0 0 1 .1765-.5142l2.4553-3.8342a2.5124 2.5124 0 0 0 .0815-.5151c-.01-.309-.1471-.6015-.3811-.8134-.2341-.212-.546-.3259-.8674-.3169v.005Zm-6.0184 0a1.1907 1.1907 0 0 1 .4693.0764c.1492.0566.2844.1427.3969.2526.1126.11.1999.2412.2565.3856.0566.1443.0811.2984.072.4523v8.2036c0 1.8737-1.4548 3.119-3.239 3.119-1.7339 0-3.1852-1.2453-3.1852-3.119V4.9446c0-1.552 2.3842-1.552 2.3842 0v8.1269c0 1.0836 1.6541 1.1786 1.6541 0V4.9446a1.0799 1.0799 0 0 1 .0739-.451 1.112 1.112 0 0 1 .2556-.385c.1118-.11.2461-.1967.3944-.2545a1.203 1.203 0 0 1 .4673-.0814v-.005Z" fill="#fff"/>
    <path fill-rule="evenodd" clip-rule="evenodd" d="M29.0291 4.0977v8.4319c0 2.1088-.2323 3.2757-2.0148 3.2757a2.3577 2.3577 0 0 1-.893-.1167v3.6292a4.4013 4.4013 0 0 0 1.6733.235c5.0179 0 5.2416-3.6291 5.2416-5.7379V7.7285h2.8991v11.591h4.0175V4.0977H29.0291ZM41.288 4.0977l5.4653 11.0075-2.0079 4.2142h4.3486l6.4675-15.2217h-4.3486l-2.3408 6.4398-2.7899-6.4398H41.288ZM56.7874 19.3194h4.0157V12.763l4.1267 6.5564h5.1307l-5.6873-7.8451 5.5745-7.3766h-4.7942l-4.3504 6.4398V4.0977h-4.0157v15.2217Z" fill="#2D2D2D"/>
    <path fill-rule="evenodd" clip-rule="evenodd" d="M76.6389 19.7895c5.3526 0 7.8027-3.9825 7.8027-8.0801 0-3.981-2.4535-7.9618-7.8027-7.9618-5.2416 0-7.6951 3.9809-7.6951 7.9618 0 4.0976 2.4535 8.0801 7.6951 8.0801Zm0-3.6308c-1.7859 0-3.5683-1.522-3.5683-4.4493 0-2.9274 1.7824-4.3344 3.5683-4.3344 1.8952 0 3.6794 1.4054 3.6794 4.3344 0 2.929-1.7842 4.4493-3.6794 4.4493ZM86.451 4.0976v15.2218h3.9048l5.5746-9.1321v9.1321h3.9048V4.0976h-3.9048l-5.5746 9.1337V4.0976H86.451Zm6.8039-.8185c1.6733 0 3.3448-.5868 4.125-2.3422L95.0392 0c-.3347 1.167-1.3386 1.2886-1.7843 1.2886-.3363 0-1.4512-.1183-1.6732-1.2886l-2.3408.9369c.6676 1.7554 2.4518 2.3422 4.014 2.3422ZM104.071 4.0977v8.4319c0 2.1071-.224 3.2774-2.006 3.2774a2.3582 2.3582 0 0 1-.893-.1167v3.6291a4.402 4.402 0 0 0 1.673.2351c5.018 0 5.242-3.6292 5.242-5.738v-6.088h2.899v11.5909H115V4.0977h-10.929Z" fill="#2D2D2D"/>
  </g>
  <defs>
    <clipPath id="a">
      <path fill="#fff" d="M0 0h115v22H0z"/>
    </clipPath>
  </defs>
</svg>
