<svg width="16" height="16" fill="none" xmlns="http://www.w3.org/2000/svg">
  <g clip-path="url(#a)">
    <path d="M.9617 6.877a1.143 1.143 0 0 1 .198-.0147h11.2877l-.2461-.1145a2.2885 2.2885 0 0 1-.6468-.4579L8.3891 3.1246a1.1848 1.1848 0 0 1-.166-1.5169c.3736-.5101 1.0899-.6209 1.6-.2473.0412.0302.0804.063.1172.0985l5.724 5.724c.4473.4468.4477 1.1716.0009 1.619l-.0009.0008-5.724 5.724c-.4477.4464-1.1725.4454-1.619-.0023a1.1432 1.1432 0 0 1-.0982-.1122 1.1848 1.1848 0 0 1 .166-1.5168l3.1596-3.1711a2.2908 2.2908 0 0 1 .5724-.4179l.3435-.1545H1.2227A1.1849 1.1849 0 0 1 .015 8.1903c-.1012-.6241.3226-1.212.9467-1.3133Z" fill="#2194FF"/>
  </g>
  <defs>
    <clipPath id="a">
      <path fill="#fff" d="M16 0H0v16h16z"/>
    </clipPath>
  </defs>
</svg>
