<svg width="269" height="98" fill="none" xmlns="http://www.w3.org/2000/svg">
  <path d="M5.7064 61.5414v-2.9L11.372 52.8h8.5596v8.7414H5.7064Zm0 14.4586v-8.6586h14.2252V76h5.6656V47H8.5188L0 55.7414V76h5.7064ZM44.1336 76V52.8h9.9047V47H28.4411v5.8h9.9862V76h5.7063ZM62.189 76V58.6l5.6656-5.8h8.5596V76h5.6656V47H65.0014l-8.5188 8.7V76h5.7064ZM91.4453 61.5414v-2.9L97.1109 52.8h8.5591v8.7414H91.4453Zm0 14.4586v-8.6586H105.67V76h5.666V47H94.2577l-8.5188 8.7414V76h5.7064ZM121.109 76V64.4414h14.225V76H141V47h-5.666v11.6414h-14.225V47h-5.706v29h5.706ZM195.672 76V52.8h18.395V47H190v29h5.672ZM220.551 61.5414v-2.9l5.632-5.8414h8.508v8.7414h-14.14Zm0 14.4586v-8.6586h14.14V76h5.632V47h-16.977l-8.468 8.7414V76h5.673ZM266.204 76 269 73.1414v-8.7l-2.796-2.9 2.796-2.9v-8.7L266.204 47h-19.853l-2.796 2.9414V55.7h5.673v-2.9h14.14v5.8414h-8.508v5.8h8.508V70.2h-14.14v-2.8586h-5.673v5.8L246.351 76h19.853ZM8.5493 86.674c0 .6886-.2287 1.2576-.6863 1.707-.4575.4493-1.0775.735-1.8599.8571v.044c.9197.0976 1.6243.3687 2.1139.8131.4941.4445.7412 1.0232.7412 1.7363 0 .9866-.3752 1.7656-1.1256 2.337-.7458.5714-1.7798.8571-3.102.8571-1.4733 0-2.656-.1929-3.5482-.5787v-1.9048c.43.2198.9333.3932 1.5098.5202.581.1221 1.1233.1831 1.6266.1831 1.6883 0 2.5324-.525 2.5324-1.5751 0-.4737-.2722-.8376-.8167-1.0915-.5399-.254-1.3406-.381-2.402-.381h-.9403v-1.7729h.8442c1.0615 0 1.8347-.1074 2.3197-.3223.485-.2149.7275-.5715.7275-1.0696 0-.3663-.1533-.6569-.4599-.8718-.302-.2198-.7572-.3297-1.3657-.3297-.9425 0-1.853.2906-2.7315.8718L1 85.1868c.572-.4054 1.1782-.7008 1.8187-.8864.6405-.1905 1.352-.2857 2.1344-.2857 1.0935 0 1.9651.2442 2.6148.7326.6543.4884.9814 1.1306.9814 1.9267ZM16.8742 94.8791l-.7275-2.5494h-3.658l-.7275 2.5494H9.469l3.5413-10.7546h2.6011l3.555 10.7546h-2.2922Zm-1.2354-4.4542c-.6725-2.3101-1.0523-3.6166-1.1392-3.9194-.0824-.3028-.1419-.5421-.1785-.718-.151.6252-.5833 2.171-1.2971 4.6374h2.6148ZM28.3766 94.8791h-2.1207v-8.8205h-3.6923v8.8205h-2.1275V84.1685h7.9405v10.7106ZM33.0366 89.2088h.7c.6543 0 1.1439-.1368 1.4687-.4103.3249-.2784.4873-.6813.4873-1.2088 0-.5323-.1373-.9255-.4118-1.1794-.2699-.254-.6954-.381-1.2765-.381h-.9677v3.1795Zm4.8041-1.6996c0 1.1526-.3386 2.0341-1.0157 2.6446-.6726.6105-1.6311.9158-2.8756.9158h-.9128v3.8095h-2.1275V84.1685h3.205c1.217 0 2.1413.2808 2.7727.8425.6359.5568.9539 1.3895.9539 2.4982ZM45.8773 94.8791l-.7275-2.5494h-3.6579l-.7275 2.5494h-2.2923l3.5413-10.7546h2.6011l3.5551 10.7546h-2.2923Zm-1.2353-4.4542c-.6726-2.3101-1.0524-3.6166-1.1393-3.9194-.0823-.3028-.1418-.5421-.1784-.718-.151.6252-.5834 2.171-1.2971 4.6374h2.6148ZM49.4392 84.1685h3.1227c1.4229 0 2.4547.2173 3.0952.652.6452.4298.9677 1.116.9677 2.0586 0 .6398-.1418 1.1649-.4255 1.5751-.2791.4103-.652.6569-1.1187.7399v.0733c.636.1514 1.0935.4347 1.3726.8498.2837.4152.4256.967.4256 1.6557 0 .9768-.3318 1.7387-.9952 2.2857-.6588.547-1.5556.8205-2.6903.8205h-3.7541V84.1685Zm2.1276 4.2418h1.2353c.5765 0 .9929-.0953 1.2491-.2858.2608-.1904.3912-.5055.3912-.945 0-.4103-.1419-.7033-.4255-.8791-.2791-.1807-.7229-.2711-1.3315-.2711h-1.1186v2.381Zm0 1.8022v2.7912h1.3863c.5856 0 1.018-.1197 1.2971-.359.2791-.2393.4187-.6056.4187-1.0989 0-.8889-.5948-1.3333-1.7844-1.3333h-1.3177ZM67.0635 94.8791h-2.4158l-3.6374-5.4286v5.4286h-2.1275V84.1685h2.1275v5.1868l3.5962-5.1868h2.2648l-3.658 5.1429 3.8502 5.5677Z" fill="#F1F1F1"/>
  <path d="m74.4687 94.8791-.7275-2.5494h-3.658l-.7275 2.5494h-2.2922l3.5413-10.7546h2.6011l3.555 10.7546h-2.2922Zm-1.2354-4.4542c-.6725-2.3101-1.0523-3.6166-1.1392-3.9194-.0824-.3028-.1419-.5421-.1785-.718-.1509.6252-.5833 2.171-1.2971 4.6374h2.6148ZM88.0232 84.1685v1.8755h-4.2139v8.8351h-2.1276V84.1685h6.3415ZM95.7166 94.8791l-.7275-2.5494h-3.658l-.7274 2.5494h-2.2923l3.5413-10.7546h2.6011l3.5551 10.7546h-2.2923Zm-1.2353-4.4542c-.6726-2.3101-1.0524-3.6166-1.1393-3.9194-.0823-.3028-.1418-.5421-.1784-.718-.151.6252-.5834 2.171-1.2971 4.6374h2.6148ZM106.21 86.674c0 .6886-.229 1.2576-.686 1.707-.458.4493-1.078.735-1.86.8571v.044c.92.0976 1.624.3687 2.114.8131.494.4445.741 1.0232.741 1.7363 0 .9866-.375 1.7656-1.126 2.337-.745.5714-1.779.8571-3.102.8571-1.473 0-2.6556-.1929-3.5478-.5787v-1.9048c.4301.2198.9334.3932 1.5098.5202.581.1221 1.123.1831 1.627.1831 1.688 0 2.532-.525 2.532-1.5751 0-.4737-.272-.8376-.817-1.0915-.54-.254-1.34-.381-2.402-.381h-.94v-1.7729h.844c1.062 0 1.835-.1074 2.32-.3223.485-.2149.727-.5715.727-1.0696 0-.3663-.153-.6569-.459-.8718-.302-.2198-.758-.3297-1.366-.3297-.943 0-1.853.2906-2.7316.8718l-.9265-1.5165c.5719-.4054 1.1781-.7008 1.8191-.8864.64-.1905 1.352-.2857 2.134-.2857 1.093 0 1.965.2442 2.615.7326.654.4884.981 1.1306.981 1.9267ZM114.734 84.1685v1.8755h-4.214v8.8351h-2.127V84.1685h6.341ZM125.392 89.5092c0 1.7729-.411 3.1355-1.235 4.0879-.824.9524-2.004 1.4285-3.541 1.4285-1.538 0-2.718-.4761-3.542-1.4285-.823-.9524-1.235-2.3199-1.235-4.1026 0-1.7827.412-3.1429 1.235-4.0806.828-.9426 2.014-1.4139 3.555-1.4139 1.542 0 2.72.4737 3.535 1.4212.819.9475 1.228 2.3102 1.228 4.088Zm-7.323 0c0 1.1965.213 2.0976.639 2.7033.425.6056 1.061.9084 1.908.9084 1.697 0 2.546-1.2039 2.546-3.6117 0-2.4127-.844-3.6191-2.533-3.6191-.846 0-1.484.3053-1.914.9158-.43.6056-.646 1.5067-.646 2.7033ZM135.412 94.8791h-2.12v-8.8205h-2.457l-.11.9817c-.284 2.4957-.535 4.2491-.755 5.2601-.215 1.0061-.531 1.7143-.947 2.1245-.416.4103-.979.6105-1.688.6007-.385 0-.723-.0537-1.016-.1611v-1.8608c.265.0976.515.1465.748.1465.242 0 .435-.1172.576-.3517.142-.2393.275-.6788.398-1.3186.129-.6447.296-1.6972.501-3.1576.211-1.4652.389-2.8498.536-4.1538h6.334v10.7106ZM145.014 91.5311c0 2.232-1.382 3.348-4.146 3.348h-2.923V84.1685h2.127v4.1099h.838c1.308 0 2.319.2833 3.033.8498s1.071 1.3675 1.071 2.4029Zm-4.942 1.4872h.714c.718 0 1.245-.1221 1.579-.3663.334-.2491.501-.6227.501-1.1209 0-.4932-.17-.8473-.508-1.0622-.339-.2198-.92-.3297-1.743-.3297h-.543v2.8791ZM145.727 92.989h.776c.663-1.4164 1.187-2.8303 1.572-4.2417.384-1.4164.67-2.9427.858-4.5788h5.847v8.8205h1.338V98h-2.052v-3.1209h-6.286V98h-2.053v-5.011Zm4.894-6.9304c-.147 1.1184-.391 2.3028-.735 3.5531-.338 1.2503-.72 2.3761-1.146 3.3773h3.919v-6.9304h-2.038ZM163.448 94.8791h-5.779V84.1685h5.779v1.8608h-3.651v2.3517h3.397v1.8608h-3.397v2.7619h3.651v1.8754ZM167.675 89.2088h.7c.655 0 1.144-.1368 1.469-.4103.325-.2784.487-.6813.487-1.2088 0-.5323-.137-.9255-.411-1.1794-.27-.254-.696-.381-1.277-.381h-.968v3.1795Zm4.805-1.6996c0 1.1526-.339 2.0341-1.016 2.6446-.673.6105-1.631.9158-2.876.9158h-.913v3.8095h-2.127V84.1685h3.205c1.217 0 2.141.2808 2.773.8425.636.5568.954 1.3895.954 2.4982ZM183.481 89.5092c0 1.7729-.412 3.1355-1.235 4.0879-.824.9524-2.004 1.4285-3.542 1.4285-1.537 0-2.717-.4761-3.541-1.4285-.824-.9524-1.235-2.3199-1.235-4.1026 0-1.7827.411-3.1429 1.235-4.0806.828-.9426 2.013-1.4139 3.555-1.4139 1.542 0 2.72.4737 3.535 1.4212.818.9475 1.228 2.3102 1.228 4.088Zm-7.323 0c0 1.1965.213 2.0976.638 2.7033.426.6056 1.062.9084 1.908.9084 1.698 0 2.547-1.2039 2.547-3.6117 0-2.4127-.845-3.6191-2.533-3.6191-.846 0-1.485.3053-1.915.9158-.43.6056-.645 1.5067-.645 2.7033ZM185.56 84.1685h3.123c1.423 0 2.455.2173 3.095.652.646.4298.968 1.116.968 2.0586 0 .6398-.142 1.1649-.425 1.5751-.28.4103-.652.6569-1.119.7399v.0733c.636.1514 1.093.4347 1.372.8498.284.4152.426.967.426 1.6557 0 .9768-.332 1.7387-.995 2.2857-.659.547-1.556.8205-2.69.8205h-3.755V84.1685Zm2.128 4.2418h1.235c.577 0 .993-.0953 1.249-.2858.261-.1904.392-.5055.392-.945 0-.4103-.142-.7033-.426-.8791-.279-.1807-.723-.2711-1.331-.2711h-1.119v2.381Zm0 1.8022v2.7912h1.386c.586 0 1.018-.1197 1.297-.359.28-.2393.419-.6056.419-1.0989 0-.8889-.595-1.3333-1.784-1.3333h-1.318Z" fill="#F1F1F1"/>
  <path d="M169.457 76V44.8H183V37h-35v7.8h13.654V76h7.803Z" fill="#2194FF"/>
  <path fill-rule="evenodd" clip-rule="evenodd" d="M168.75 6.4234c-1.137.9365-1.439 2.6263-.908 5.0694-.125-1.4274.48-2.5676 1.815-3.4205.888-.8004 1.191-2.3328.909-4.5971-.237 1.3527-.843 2.3377-1.816 2.9549v-.0067Zm-6.766 22.0411c-1.165-1.1902-1.835-2.7525-1.882-4.3889-.047-1.6363.532-3.232 1.628-4.4825 1.081-1.1562 1.266-2.4217.553-3.7967 1.064.5683 1.582 1.974 1.553 4.2169 1.742-3.4756 1.672-6.3807-.211-8.7153.732.1867 1.45.4221 2.149.7044-.227-1.2736-.694-2.3555-1.401-3.2457-1.404-2.6495-1.318-5.5683.256-8.7567-.672 2.066-.332 4.027 1.021 5.8831 1.317 1.8828 1.628 4.0435.933 6.4822 4.205 2.0659 5.466 5.7599 3.781 11.0819 1.347-.8894 1.842-2.4635 1.484-4.7225 1.812 3.2986 1.958 5.992.437 8.0803 1.145-1.3352 1.787-3.0051 1.821-4.7372.053-2.2697-.411-4.0755-1.392-5.4176-1.364-1.6008-2.177-2.9416-2.44-4.0221-.596-3.9648.35-6.8014 2.838-8.51-2.213 2.4903-2.075 5.8147.415 9.9734-.409-2.3346.183-3.7656 1.776-4.293-1.604.6342-1.449 3.7798.465 9.4371.527 2.3241.149 4.7539-1.061 6.8268-1.211 2.073-3.169 3.6443-5.503 4.4149-2.334.7706-4.88.6867-7.154-.2357-2.273-.9224-4.116-2.6189-5.177-4.7667-1.488-3.4062-1.073-7.5107 1.245-12.3132 1.54-2.5214 2.334-5.4856 2.383-8.8928-.266-1.6497-.827-2.974-1.683-3.9727 2.669 2.2394 4.096 4.69 4.28 7.3519.19 2.4146-.443 4.558-1.901 6.4301-1.98 2.6538-2.945 5.7186-2.894 9.1942.199 1.0661.63 2.0794 1.264 2.9732.635.8938 1.458 1.6478 2.417 2.2123v.0066Zm6.472.8004c1.929-1.6062 2.053-3.6268.372-6.0619-1.375-1.9023-1.877-3.6414-1.503-5.2174-2.446 1.2714-2.384 5.1347-1.714 8.2164-.708-.523-1.985-3.0937-1.937-4.3383-1.944 2.9731-1.791 5.4669.46 7.4813 1.42.3557 2.913.328 4.318-.0801h.004Z" fill="#2194FF"/>
</svg>
