<svg width="22" height="22" fill="none" xmlns="http://www.w3.org/2000/svg">
  <path d="M11.9992 9.7115a.367.367 0 0 0-.3143-.1782h-1.3698a.367.367 0 0 0-.3143.1779l-.66 1.1a.3667.3667 0 0 0 0 .3773l.66 1.1a.3677.3677 0 0 0 .3143.1782h1.3698a.3665.3665 0 0 0 .3143-.1779l.66-1.1a.3663.3663 0 0 0 0-.3773l-.66-1.1Z" fill="#2194FF"/>
  <path d="m19.9038 15.2937-1.4667-.8459 1.1796-.4334a.7629.7629 0 0 0 .4976-.8841.7336.7336 0 0 0-.9636-.5071l-2.3658.8701-1.8575-1.0728.6193-1.0476a.7332.7332 0 0 0 0-.7458l-.6189-1.0476 1.8571-1.0728 2.3658.87a.733.733 0 0 0 .8554-.269.7339.7339 0 0 0 .121-.2952.7578.7578 0 0 0-.5038-.8243l-1.1851-.4349 1.4667-.8473a.7597.7597 0 0 0 .3381-.9534.734.734 0 0 0-.7467-.4305.7328.7328 0 0 0-.2899.0943l-1.5033.8672.2137-1.2364a.7637.7637 0 0 0-.4704-.8591.7333.7333 0 0 0-.9673.5665l-.4293 2.4838-1.87 1.0798-.5849-.99a.733.733 0 0 0-.6299-.3615h-1.2316V4.7436L13.64 3.1552a.7613.7613 0 0 0 .1947-.9574.733.733 0 0 0-.8227-.3401.7328.7328 0 0 0-.2809.1454l-.9977.8312v-1.695a.761.761 0 0 0-.6102-.7627.733.733 0 0 0-.7884.4143.7335.7335 0 0 0-.0681.3091v1.7343l-.9673-.8066a.7605.7605 0 0 0-.976-.0187.7334.7334 0 0 0 .0077 1.1212l1.936 1.6134v2.223h-1.232a.7333.7333 0 0 0-.6314.3605l-.5849.99-1.87-1.0798-.422-2.4424a.7626.7626 0 0 0-.7795-.6483.7333.7333 0 0 0-.6729.857l.22 1.2789-1.4666-.8478a.7605.7605 0 0 0-.9655.1467.7332.7332 0 0 0 .198 1.1033l1.5034.8672-1.1858.436a.7586.7586 0 0 0-.5046.8246.7333.7333 0 0 0 .9765.5643l2.3653-.8701 1.8576 1.0728-.6193 1.0476a.7333.7333 0 0 0 0 .7458l.6189 1.0476-1.8572 1.0728-2.3653-.8701a.734.734 0 0 0-.964.5068.7631.7631 0 0 0 .4976.8844l1.1784.4323-1.4633.8433a.7637.7637 0 0 0-.3366.9676.7336.7336 0 0 0 .7443.4188.7341.7341 0 0 0 .2867-.0939l1.5034-.8672-.2145 1.2416a.7492.7492 0 0 0 .4003.8215.7486.7486 0 0 0 .3154.0783.7339.7339 0 0 0 .7216-.6087l.4294-2.4838 1.87-1.0798.5848.99a.7333.7333 0 0 0 .6318.3589h1.2316v2.2231L8.36 18.8467a.7594.7594 0 0 0-.194.9566.733.733 0 0 0 1.1037.1947l.997-.8323v1.6951a.7606.7606 0 0 0 .6101.7626.7324.7324 0 0 0 .5964-.1626.7338.7338 0 0 0 .2602-.5608v-1.7343l.9973.8312a.7355.7355 0 0 0 .2874.1473.7345.7345 0 0 0 .6184-.1206.7337.7337 0 0 0 .2111-.2445.7562.7562 0 0 0-.2039-.9306l-1.9103-1.5921v-2.2231h1.2316a.7331.7331 0 0 0 .6314-.3604l.5848-.99 1.87 1.0798.4294 2.4838a.7329.7329 0 0 0 .7216.6087.7547.7547 0 0 0 .5683-.286.7541.7541 0 0 0 .1474-.6189l-.2134-1.2328 1.5034.8672a.7338.7338 0 0 0 .5871.0647.7351.7351 0 0 0 .4443-.3892.7627.7627 0 0 0-.3355-.9665Zm-6.6158-3.7279-.66 1.1a1.105 1.105 0 0 1-.943.5342h-1.3699a1.1042 1.1042 0 0 1-.943-.5342l-.66-1.1a1.0961 1.0961 0 0 1 0-1.1316l.66-1.1a1.1049 1.1049 0 0 1 .943-.5342h1.3699a1.1048 1.1048 0 0 1 .943.5342l.66 1.1a1.0954 1.0954 0 0 1 0 1.1316Z" fill="#2194FF"/>
</svg>
