<svg width="16" height="16" fill="none" xmlns="http://www.w3.org/2000/svg">
  <g clip-path="url(#a)">
    <path d="M6.877 15.0383a1.143 1.143 0 0 1-.0147-.198V3.5526l-.1145.2462a2.2897 2.2897 0 0 1-.4579.6468L3.1246 7.6109a1.1848 1.1848 0 0 1-1.5169.166c-.5101-.3735-.6209-1.0898-.2473-1.6a1.1458 1.1458 0 0 1 .0985-.1172l5.724-5.724C7.6296-.1115 8.3544-.112 8.8018.335a.0748.0748 0 0 0 .0008.0009l5.724 5.724c.4464.4476.4454 1.1724-.0023 1.6189a1.1432 1.1432 0 0 1-.1122.0982 1.1848 1.1848 0 0 1-1.5168-.166L9.7243 4.4513a2.2895 2.2895 0 0 1-.4179-.5724l-.1545-.3434v11.2418a1.185 1.185 0 0 1-.9616 1.2078c-.6241.1012-1.212-.3227-1.3133-.9468Z" fill="#2194FF"/>
  </g>
  <defs>
    <clipPath id="a">
      <path fill="#fff" d="M0 0v16h16V0z"/>
    </clipPath>
  </defs>
</svg>
